<svg xmlns="http://www.w3.org/2000/svg" width="900" height="700" viewBox="0 0 900 700" role="img" aria-label="Ujoors mobile employees preview">
  <defs>
    <linearGradient id="bg" x1="0" x2="1" y1="0" y2="1">
      <stop offset="0" stop-color="#0b1220"/>
      <stop offset="1" stop-color="#0f172a"/>
    </linearGradient>
    <linearGradient id="accent" x1="0" x2="1" y1="0" y2="0">
      <stop offset="0" stop-color="#22c55e"/>
      <stop offset="1" stop-color="#3b82f6"/>
    </linearGradient>
    <filter id="shadow" x="-20%" y="-20%" width="140%" height="140%">
      <feDropShadow dx="0" dy="18" stdDeviation="18" flood-color="#000" flood-opacity="0.35"/>
    </filter>
  </defs>

  <rect width="900" height="700" rx="28" fill="url(#bg)"/>
  <circle cx="180" cy="600" r="230" fill="#22c55e" opacity="0.08"/>
  <circle cx="760" cy="160" r="230" fill="#3b82f6" opacity="0.10"/>

  <!-- Phone frame -->
  <g filter="url(#shadow)">
    <rect x="250" y="55" width="400" height="590" rx="42" fill="#0a1627" stroke="#223043"/>
  </g>
  <rect x="330" y="78" width="240" height="16" rx="8" fill="#091428" opacity="0.9"/>

  <!-- Header -->
  <rect x="270" y="120" width="360" height="54" rx="18" fill="#0b1b31" stroke="#223043"/>
  <rect x="294" y="140" width="120" height="10" rx="5" fill="#d1e0ff" opacity="0.9"/>
  <rect x="520" y="136" width="92" height="18" rx="9" fill="url(#accent)" opacity="0.9"/>

  <!-- Search -->
  <rect x="270" y="188" width="360" height="40" rx="16" fill="#0b1b31" stroke="#223043"/>
  <rect x="292" y="202" width="160" height="10" rx="5" fill="#91a4c6" opacity="0.55"/>

  <!-- List -->
  <rect x="270" y="244" width="360" height="360" rx="18" fill="#0b1b31" stroke="#223043"/>

  <g>
    <rect x="292" y="266" width="316" height="64" rx="18" fill="#0a1627" stroke="#223043"/>
    <circle cx="322" cy="298" r="14" fill="url(#accent)" opacity="0.85"/>
    <rect x="346" y="290" width="140" height="10" rx="5" fill="#d1e0ff" opacity="0.9"/>
    <rect x="346" y="306" width="110" height="8" rx="4" fill="#91a4c6" opacity="0.55"/>
    <rect x="520" y="290" width="70" height="14" rx="7" fill="#22c55e" opacity="0.18"/>
    <rect x="534" y="294" width="42" height="6" rx="3" fill="#22c55e" opacity="0.85"/>

    <rect x="292" y="338" width="316" height="64" rx="18" fill="#0a1627" stroke="#223043"/>
    <circle cx="322" cy="370" r="14" fill="#3b82f6" opacity="0.85"/>
    <rect x="346" y="362" width="150" height="10" rx="5" fill="#d1e0ff" opacity="0.9"/>
    <rect x="346" y="378" width="92" height="8" rx="4" fill="#91a4c6" opacity="0.55"/>
    <rect x="520" y="362" width="76" height="14" rx="7" fill="#f59e0b" opacity="0.18"/>
    <rect x="534" y="366" width="48" height="6" rx="3" fill="#f59e0b" opacity="0.85"/>

    <rect x="292" y="410" width="316" height="64" rx="18" fill="#0a1627" stroke="#223043"/>
    <circle cx="322" cy="442" r="14" fill="#a855f7" opacity="0.85"/>
    <rect x="346" y="434" width="132" height="10" rx="5" fill="#d1e0ff" opacity="0.9"/>
    <rect x="346" y="450" width="122" height="8" rx="4" fill="#91a4c6" opacity="0.55"/>
    <rect x="520" y="434" width="70" height="14" rx="7" fill="#22c55e" opacity="0.18"/>
    <rect x="534" y="438" width="42" height="6" rx="3" fill="#22c55e" opacity="0.85"/>
  </g>
</svg>
