<svg xmlns="http://www.w3.org/2000/svg" width="1200" height="700" viewBox="0 0 1200 700" role="img" aria-label="Ujoors payroll preview">
  <defs>
    <linearGradient id="bg" x1="0" x2="1" y1="0" y2="1">
      <stop offset="0" stop-color="#0b1220"/>
      <stop offset="1" stop-color="#0f172a"/>
    </linearGradient>
    <linearGradient id="accent" x1="0" x2="1" y1="0" y2="0">
      <stop offset="0" stop-color="#f59e0b"/>
      <stop offset="0.55" stop-color="#3b82f6"/>
      <stop offset="1" stop-color="#22c55e"/>
    </linearGradient>
    <filter id="shadow" x="-20%" y="-20%" width="140%" height="140%">
      <feDropShadow dx="0" dy="18" stdDeviation="18" flood-color="#000" flood-opacity="0.35"/>
    </filter>
  </defs>

  <rect width="1200" height="700" rx="28" fill="url(#bg)"/>
  <circle cx="240" cy="160" r="220" fill="#f59e0b" opacity="0.09"/>
  <circle cx="1040" cy="580" r="260" fill="#3b82f6" opacity="0.10"/>

  <g filter="url(#shadow)">
    <rect x="70" y="70" width="1060" height="560" rx="18" fill="#0a1627" stroke="#223043"/>
  </g>

  <!-- Header bar -->
  <rect x="70" y="70" width="1060" height="64" rx="18" fill="#0b1b31"/>
  <circle cx="105" cy="102" r="7" fill="#ef4444"/>
  <circle cx="130" cy="102" r="7" fill="#f59e0b"/>
  <circle cx="155" cy="102" r="7" fill="#22c55e"/>

  <!-- Title + primary action -->
  <rect x="100" y="154" width="270" height="30" rx="15" fill="#0b1b31" stroke="#223043"/>
  <rect x="112" y="166" width="150" height="10" rx="5" fill="#d1e0ff" opacity="0.9"/>
  <rect x="870" y="152" width="220" height="34" rx="17" fill="url(#accent)" opacity="0.95"/>
  <rect x="884" y="165" width="120" height="9" rx="4.5" fill="#07111f" opacity="0.35"/>

  <!-- Summary cards -->
  <g>
    <rect x="100" y="204" width="320" height="140" rx="16" fill="#0b1b31" stroke="#223043"/>
    <rect x="124" y="230" width="120" height="10" rx="5" fill="#91a4c6" opacity="0.55"/>
    <rect x="124" y="250" width="180" height="16" rx="8" fill="#d1e0ff" opacity="0.9"/>
    <rect x="124" y="282" width="240" height="8" rx="4" fill="#91a4c6" opacity="0.22"/>
    <rect x="124" y="298" width="190" height="8" rx="4" fill="#91a4c6" opacity="0.22"/>
    <rect x="124" y="314" width="220" height="8" rx="4" fill="#91a4c6" opacity="0.22"/>

    <rect x="440" y="204" width="320" height="140" rx="16" fill="#0b1b31" stroke="#223043"/>
    <rect x="464" y="230" width="120" height="10" rx="5" fill="#91a4c6" opacity="0.55"/>
    <rect x="464" y="250" width="170" height="16" rx="8" fill="#d1e0ff" opacity="0.9"/>
    <rect x="464" y="284" width="270" height="10" rx="5" fill="#3b82f6" opacity="0.22"/>
    <rect x="464" y="284" width="190" height="10" rx="5" fill="#3b82f6" opacity="0.55"/>
    <rect x="464" y="304" width="240" height="10" rx="5" fill="#22c55e" opacity="0.18"/>
    <rect x="464" y="304" width="150" height="10" rx="5" fill="#22c55e" opacity="0.55"/>

    <rect x="780" y="204" width="310" height="140" rx="16" fill="#0b1b31" stroke="#223043"/>
    <rect x="804" y="230" width="140" height="10" rx="5" fill="#91a4c6" opacity="0.55"/>
    <rect x="804" y="250" width="150" height="16" rx="8" fill="#d1e0ff" opacity="0.9"/>
    <rect x="804" y="284" width="260" height="8" rx="4" fill="#91a4c6" opacity="0.22"/>
    <rect x="804" y="300" width="210" height="8" rx="4" fill="#91a4c6" opacity="0.22"/>
    <rect x="804" y="316" width="240" height="8" rx="4" fill="#91a4c6" opacity="0.22"/>
  </g>

  <!-- Payslips table -->
  <rect x="100" y="370" width="990" height="260" rx="16" fill="#0b1b31" stroke="#223043"/>
  <rect x="124" y="394" width="180" height="12" rx="6" fill="#d1e0ff" opacity="0.9"/>
  <rect x="124" y="414" width="260" height="10" rx="5" fill="#91a4c6" opacity="0.55"/>

  <rect x="124" y="440" width="942" height="44" rx="12" fill="#091428" stroke="#223043"/>
  <rect x="154" y="456" width="110" height="10" rx="5" fill="#91a4c6" opacity="0.75"/>
  <rect x="350" y="456" width="90" height="10" rx="5" fill="#91a4c6" opacity="0.75"/>
  <rect x="520" y="456" width="120" height="10" rx="5" fill="#91a4c6" opacity="0.75"/>
  <rect x="740" y="456" width="100" height="10" rx="5" fill="#91a4c6" opacity="0.75"/>
  <rect x="900" y="456" width="120" height="10" rx="5" fill="#91a4c6" opacity="0.75"/>

  <g>
    <rect x="124" y="494" width="942" height="54" rx="14" fill="#0a1627" stroke="#223043"/>
    <circle cx="160" cy="521" r="14" fill="url(#accent)" opacity="0.85"/>
    <rect x="186" y="512" width="150" height="10" rx="5" fill="#d1e0ff" opacity="0.9"/>
    <rect x="186" y="528" width="110" height="8" rx="4" fill="#91a4c6" opacity="0.55"/>
    <rect x="350" y="518" width="70" height="10" rx="5" fill="#91a4c6" opacity="0.55"/>
    <rect x="520" y="518" width="110" height="10" rx="5" fill="#91a4c6" opacity="0.55"/>
    <rect x="740" y="516" width="88" height="14" rx="7" fill="#22c55e" opacity="0.18"/>
    <rect x="754" y="520" width="60" height="6" rx="3" fill="#22c55e" opacity="0.85"/>
    <rect x="910" y="518" width="120" height="10" rx="5" fill="#91a4c6" opacity="0.55"/>

    <rect x="124" y="554" width="942" height="54" rx="14" fill="#0a1627" stroke="#223043"/>
    <circle cx="160" cy="581" r="14" fill="#3b82f6" opacity="0.85"/>
    <rect x="186" y="572" width="140" height="10" rx="5" fill="#d1e0ff" opacity="0.9"/>
    <rect x="186" y="588" width="128" height="8" rx="4" fill="#91a4c6" opacity="0.55"/>
    <rect x="350" y="578" width="90" height="10" rx="5" fill="#91a4c6" opacity="0.55"/>
    <rect x="520" y="578" width="100" height="10" rx="5" fill="#91a4c6" opacity="0.55"/>
    <rect x="740" y="576" width="88" height="14" rx="7" fill="#f59e0b" opacity="0.18"/>
    <rect x="754" y="580" width="60" height="6" rx="3" fill="#f59e0b" opacity="0.85"/>
    <rect x="910" y="578" width="110" height="10" rx="5" fill="#91a4c6" opacity="0.55"/>
  </g>
</svg>
