<svg xmlns="http://www.w3.org/2000/svg" width="1200" height="700" viewBox="0 0 1200 700" role="img" aria-label="Ujoors employees list preview">
  <defs>
    <linearGradient id="bg" x1="0" x2="1" y1="0" y2="1">
      <stop offset="0" stop-color="#0b1220"/>
      <stop offset="1" stop-color="#0f172a"/>
    </linearGradient>
    <linearGradient id="accent" x1="0" x2="1" y1="0" y2="0">
      <stop offset="0" stop-color="#22c55e"/>
      <stop offset="1" stop-color="#3b82f6"/>
    </linearGradient>
    <filter id="shadow" x="-20%" y="-20%" width="140%" height="140%">
      <feDropShadow dx="0" dy="18" stdDeviation="18" flood-color="#000" flood-opacity="0.35"/>
    </filter>
  </defs>

  <rect width="1200" height="700" rx="28" fill="url(#bg)"/>
  <circle cx="260" cy="610" r="240" fill="#22c55e" opacity="0.08"/>
  <circle cx="1010" cy="180" r="270" fill="#3b82f6" opacity="0.10"/>

  <g filter="url(#shadow)">
    <rect x="70" y="70" width="1060" height="560" rx="18" fill="#0a1627" stroke="#223043"/>
  </g>

  <!-- Header row -->
  <rect x="70" y="70" width="1060" height="64" rx="18" fill="#0b1b31"/>
  <circle cx="105" cy="102" r="7" fill="#ef4444"/>
  <circle cx="130" cy="102" r="7" fill="#f59e0b"/>
  <circle cx="155" cy="102" r="7" fill="#22c55e"/>

  <!-- Page title + actions -->
  <rect x="100" y="156" width="240" height="28" rx="14" fill="#0b1b31" stroke="#223043"/>
  <rect x="112" y="165" width="120" height="10" rx="5" fill="#d1e0ff" opacity="0.9"/>
  <rect x="880" y="154" width="210" height="32" rx="16" fill="url(#accent)" opacity="0.95"/>
  <rect x="892" y="165" width="96" height="10" rx="5" fill="#07111f" opacity="0.35"/>

  <!-- Filters -->
  <rect x="100" y="200" width="620" height="40" rx="14" fill="#0b1b31" stroke="#223043"/>
  <rect x="116" y="214" width="140" height="12" rx="6" fill="#91a4c6" opacity="0.55"/>
  <rect x="740" y="200" width="350" height="40" rx="14" fill="#0b1b31" stroke="#223043"/>
  <rect x="756" y="214" width="120" height="12" rx="6" fill="#91a4c6" opacity="0.55"/>

  <!-- Table -->
  <rect x="100" y="260" width="990" height="350" rx="16" fill="#0b1b31" stroke="#223043"/>

  <!-- Table header -->
  <rect x="120" y="284" width="950" height="44" rx="12" fill="#091428" stroke="#223043"/>
  <rect x="150" y="300" width="110" height="10" rx="5" fill="#91a4c6" opacity="0.75"/>
  <rect x="330" y="300" width="90" height="10" rx="5" fill="#91a4c6" opacity="0.75"/>
  <rect x="480" y="300" width="120" height="10" rx="5" fill="#91a4c6" opacity="0.75"/>
  <rect x="690" y="300" width="90" height="10" rx="5" fill="#91a4c6" opacity="0.75"/>
  <rect x="840" y="300" width="110" height="10" rx="5" fill="#91a4c6" opacity="0.75"/>

  <!-- Rows -->
  <g>
    <rect x="120" y="338" width="950" height="56" rx="14" fill="#0a1627" stroke="#223043"/>
    <circle cx="155" cy="366" r="14" fill="url(#accent)" opacity="0.9"/>
    <rect x="180" y="356" width="140" height="10" rx="5" fill="#d1e0ff" opacity="0.9"/>
    <rect x="180" y="372" width="110" height="8" rx="4" fill="#91a4c6" opacity="0.55"/>
    <rect x="330" y="362" width="72" height="10" rx="5" fill="#91a4c6" opacity="0.55"/>
    <rect x="480" y="362" width="110" height="10" rx="5" fill="#91a4c6" opacity="0.55"/>
    <rect x="690" y="360" width="74" height="14" rx="7" fill="#22c55e" opacity="0.18"/>
    <rect x="704" y="364" width="46" height="6" rx="3" fill="#22c55e" opacity="0.85"/>
    <rect x="860" y="362" width="120" height="10" rx="5" fill="#91a4c6" opacity="0.55"/>

    <rect x="120" y="404" width="950" height="56" rx="14" fill="#0a1627" stroke="#223043"/>
    <circle cx="155" cy="432" r="14" fill="#3b82f6" opacity="0.9"/>
    <rect x="180" y="422" width="150" height="10" rx="5" fill="#d1e0ff" opacity="0.9"/>
    <rect x="180" y="438" width="96" height="8" rx="4" fill="#91a4c6" opacity="0.55"/>
    <rect x="330" y="428" width="88" height="10" rx="5" fill="#91a4c6" opacity="0.55"/>
    <rect x="480" y="428" width="92" height="10" rx="5" fill="#91a4c6" opacity="0.55"/>
    <rect x="690" y="426" width="86" height="14" rx="7" fill="#f59e0b" opacity="0.18"/>
    <rect x="704" y="430" width="58" height="6" rx="3" fill="#f59e0b" opacity="0.85"/>
    <rect x="860" y="428" width="102" height="10" rx="5" fill="#91a4c6" opacity="0.55"/>

    <rect x="120" y="470" width="950" height="56" rx="14" fill="#0a1627" stroke="#223043"/>
    <circle cx="155" cy="498" r="14" fill="#a855f7" opacity="0.9"/>
    <rect x="180" y="488" width="130" height="10" rx="5" fill="#d1e0ff" opacity="0.9"/>
    <rect x="180" y="504" width="122" height="8" rx="4" fill="#91a4c6" opacity="0.55"/>
    <rect x="330" y="494" width="68" height="10" rx="5" fill="#91a4c6" opacity="0.55"/>
    <rect x="480" y="494" width="120" height="10" rx="5" fill="#91a4c6" opacity="0.55"/>
    <rect x="690" y="492" width="74" height="14" rx="7" fill="#22c55e" opacity="0.18"/>
    <rect x="704" y="496" width="46" height="6" rx="3" fill="#22c55e" opacity="0.85"/>
    <rect x="860" y="494" width="112" height="10" rx="5" fill="#91a4c6" opacity="0.55"/>
  </g>

  <!-- Footer pagination -->
  <rect x="100" y="624" width="300" height="10" rx="5" fill="#91a4c6" opacity="0.22"/>
  <rect x="940" y="616" width="150" height="28" rx="14" fill="#0b1b31" stroke="#223043"/>
  <rect x="954" y="626" width="90" height="8" rx="4" fill="#91a4c6" opacity="0.55"/>
</svg>
